#!OML:ASF I:\golf\golf\golf 2\Subject 1\2002-09-07\Subject1.ASF
:FULLY-SPECIFIED
:DEGREES
268
root -10.7063 18.0618 4.51446 -147.553 84.7506 -166.885
lowerback 3.25034 1.4549 -0.271949
upperback 5.60036 2.03237 4.56079
thorax 3.79156 0.993848 4.89235
lowerneck -12.2179 -1.42166 2.10249
upperneck 39.9966 1.44017 -4.5993
head 16.4558 0.960028 -1.97507
rclavicle 2.8625e-014 3.33958e-014
rhumerus -15.2373 23.0929 -98.2951
rradius 48.6895
rwrist -50.3281
rhand -33.1575 -8.46476
rfingers 7.12502
rthumb -6.36623 -38.3491
lclavicle 2.8625e-014 3.33958e-014
lhumerus -8.3772 -47.4037 105.103
lradius 43.0319
lwrist 49.0975
lhand -9.18236 64.6841
lfingers 7.12502
lthumb -163.229 86.0203
rfemur -29.383 -6.2902 14.08
rtibia 26.3283
rfoot -8.14941 -12.9095
rtoes -6.71475
lfemur -31.6183 2.64543 -12.8346
ltibia 19.5014
lfoot -6.55144 -10.0981
ltoes -13.2632
269
root -10.7056 18.0593 4.51473 -147.906 84.486 -167.257
lowerback 3.2096 1.47188 -0.210233
upperback 5.57936 2.05546 4.60686
thorax 3.79105 1.00764 4.90651
lowerneck -12.2722 -1.41525 2.03745
upperneck 39.9957 1.42695 -4.48851
head 16.4671 0.960175 -1.9161
rclavicle -1.27222e-014 -2.70347e-014
rhumerus -15.2293 23.0375 -98.2426
rradius 48.6941
rwrist -50.2417
rhand -33.204 -8.65297
rfingers 7.12502
rthumb -6.41111 -38.5359
lclavicle -1.27222e-014 -2.70347e-014
lhumerus -8.36925 -47.3396 105.174
lradius 42.9543
lwrist 48.9089
lhand -9.07799 64.7773
lfingers 7.12502
lthumb -163.129 85.9355
rfemur -29.3465 -6.2637 14.1226
rtibia 26.3508
rfoot -8.15171 -13.1822
rtoes -6.84779
lfemur -31.6776 2.52462 -12.7586
ltibia 19.4658
lfoot -6.528 -10.2272
ltoes -13.2385
270
root -10.706 18.0584 4.51289 -148.939 84.2092 -168.289
lowerback 3.17756 1.47476 -0.149229
upperback 5.57797 2.05985 4.60831
thorax 3.80911 1.01232 4.87459
lowerneck -12.4041 -1.40513 1.97623
upperneck 40.0239 1.40609 -4.3495
head 16.5129 0.960263 -1.84798
rclavicle -1.74931e-014 -4.77083e-014
rhumerus -15.1812 23.0281 -98.2085
rradius 48.6985
rwrist -50.2858
rhand -33.4442 -8.68237
rfingers 7.12502
rthumb -6.64302 -38.5582
lclavicle -1.74931e-014 -4.77083e-014
lhumerus -8.37531 -47.5401 105.092
lradius 43.0606
lwrist 48.9537
lhand -9.21016 64.8834
lfingers 7.12502
lthumb -163.256 85.8187
rfemur -29.3004 -6.40667 14.1249
rtibia 26.394
rfoot -8.22383 -13.3195
rtoes -6.76259
lfemur -31.7379 2.38031 -12.7648
ltibia 19.443
lfoot -6.45562 -10.3701
ltoes -12.9315
271
root -10.7069 18.0564 4.51072 -149.734 84.0361 -169.071
lowerback 3.1659 1.50172 -0.100715
upperback 5.58458 2.09629 4.57158
thorax 3.82208 1.03291 4.80895
lowerneck -12.4684 -1.36998 2.08933
upperneck 39.98 1.40852 -4.32967
head 16.5052 0.979123 -1.85876
rclavicle -1.35174e-014 -2.06736e-014
rhumerus -15.1678 23.0374 -98.2046
rradius 48.7534
rwrist -50.301
rhand -33.5661 -8.7884
rfingers 7.12502
rthumb -6.76073 -38.6605
lclavicle -1.35174e-014 -2.06736e-014
lhumerus -8.36847 -47.8433 104.95
lradius 43.1947
lwrist 49.2906
lhand -9.24003 64.6556
lfingers 7.12502
lthumb -163.285 86.0441
rfemur -29.2671 -6.5101 14.0965
rtibia 26.4423
rfoot -8.27544 -13.4162
rtoes -6.64754
lfemur -31.751 2.30097 -12.8097
ltibia 19.4254
lfoot -6.46739 -10.4488
ltoes -13.0886
272
root -10.7069 18.0547 4.50888 -150.191 83.9333 -169.501
lowerback 3.16036 1.54962 -0.0443745
upperback 5.60815 2.16089 4.52988
thorax 3.8476 1.06785 4.73399
lowerneck -12.4859 -1.31288 2.2925
upperneck 39.8956 1.43449 -4.36516
head 16.4659 1.0133 -1.90542
rclavicle -3.18055e-015 2.54444e-014
rhumerus -15.1555 22.9388 -98.2145
rradius 48.8113
rwrist -50.2227
rhand -33.397 -8.85346
rfingers 7.12502
rthumb -6.59748 -38.7307
lclavicle -3.18055e-015 2.54444e-014
lhumerus -8.30031 -48.036 104.857
lradius 43.1853
lwrist 49.6107
lhand -8.94164 64.1421
lfingers 7.12502
lthumb -162.997 86.5821
rfemur -29.2149 -6.40581 14.0247
rtibia 26.4838
rfoot -8.33032 -13.6298
rtoes -6.37327
lfemur -31.7322 2.22555 -12.8284
ltibia 19.4257
lfoot -6.50609 -10.4656
ltoes -13.356
273
root -10.7059 18.0545 4.50761 -150.538 83.7683 -169.795
lowerback 3.16094 1.57888 -0.0125794
upperback 5.65918 2.20151 4.54693
thorax 3.89803 1.08931 4.73575
lowerneck -12.5647 -1.26001 2.41917
upperneck 39.8161 1.47533 -4.4048
head 16.4458 1.04016 -1.93815
rclavicle -2.3059e-014 -3.18055e-014
rhumerus -15.0701 22.8247 -98.1934
rradius 48.7915
rwrist -50.1989
rhand -33.1833 -8.78565
rfingers 7.12502
rthumb -6.39121 -38.6692
lclavicle -2.3059e-014 -3.18055e-014
lhumerus -8.13622 -48.096 104.789
lradius 43.1256
lwrist 49.7087
lhand -8.85912 63.9275
lfingers 7.12502
lthumb -162.918 86.8035
rfemur -29.1259 -6.4077 14.021
rtibia 26.5294
rfoot -8.41797 -13.7737
rtoes -6.19989
lfemur -31.7171 2.18111 -12.8208
ltibia 19.4464
lfoot -6.48993 -10.5974
ltoes -13.0135
274
root -10.7047 18.054 4.5057 -151.081 83.4936 -170.267
lowerback 3.22421 1.57365 -0.0413488
upperback 5.66957 2.19825 4.65346
thorax 3.86926 1.08672 4.8622
lowerneck -12.5876 -1.23929 2.405
upperneck 39.72 1.53328 -4.49154
head 16.4045 1.04876 -1.96199
rclavicle -2.22639e-014 2.54444e-014
rhumerus -15.056 22.8828 -98.0759
rradius 48.7595
rwrist -50.2378
rhand -33.2275 -8.81087
rfingers 7.12502
rthumb -6.43387 -38.6931
lclavicle -2.22639e-014 2.54444e-014
lhumerus -8.06888 -47.9673 104.935
lradius 43.0598
lwrist 49.5038
lhand -8.8364 63.9226
lfingers 7.12502
lthumb -162.896 86.8103
rfemur -29.0058 -6.55678 14.0606
rtibia 26.5907
rfoot -8.53204 -13.8762
rtoes -5.93479
lfemur -31.7174 2.17279 -12.8276
ltibia 19.4587
lfoot -6.37028 -10.9115
ltoes -11.7419
275
root -10.7047 18.0512 4.50299 -151.725 83.1871 -170.889
lowerback 3.28738 1.5803 -0.0292682
upperback 5.62677 2.21065 4.72458
thorax 3.78587 1.09441 4.92611
lowerneck -12.5735 -1.25007 2.37282
upperneck 39.6476 1.52027 -4.48834
head 16.3614 1.03955 -1.95455
rclavicle -1.19271e-014 4.77083e-015
rhumerus -15.0642 22.8024 -98.001
rradius 48.721
rwrist -50.2241
rhand -33.3895 -8.84129
rfingers 7.12502
rthumb -6.59022 -38.7188
lclavicle -1.19271e-014 4.77083e-015
lhumerus -8.12651 -47.9645 105.152
lradius 42.981
lwrist 49.2503
lhand -8.64273 63.7976
lfingers 7.12502
lthumb -162.71 86.9515
rfemur -28.938 -6.67873 14.0812
rtibia 26.6579
rfoot -8.51294 -14.0928
rtoes -6.60944
lfemur -31.7875 2.19329 -12.8852
ltibia 19.4669
lfoot -6.29995 -11.2757
ltoes -11.1474
276
root -10.7058 18.0484 4.50223 -152.506 82.9257 -171.691
lowerback 3.30531 1.58342 -0.00102502
upperback 5.58264 2.21605 4.71378
thorax 3.73027 1.09922 4.89628
lowerneck -12.5836 -1.23112 2.37875
upperneck 39.6046 1.49706 -4.37448
head 16.3383 1.04555 -1.90801
rclavicle -2.3059e-014 -7.63333e-014
rhumerus -15.0314 22.6219 -98.0024
rradius 48.6918
rwrist -50.2747
rhand -33.3887 -8.87896
rfingers 7.12502
rthumb -6.58949 -38.7564
lclavicle -2.3059e-014 -7.63333e-014
lhumerus -8.14764 -47.9682 105.212
lradius 42.9163
lwrist 49.0695
lhand -8.5931 63.7928
lfingers 7.12502
lthumb -162.662 86.9605
rfemur -28.9373 -6.85605 14.0838
rtibia 26.732
rfoot -8.48527 -14.2036
rtoes -7.28223
lfemur -31.9 2.26391 -13.0039
ltibia 19.4847
lfoot -6.30177 -11.6326
ltoes -11.4339
277
root -10.7076 18.0484 4.50263 -153.131 82.6445 -172.299
lowerback 3.33984 1.52529 0.0498966
upperback 5.57436 2.14119 4.72209
thorax 3.70987 1.06454 4.8751
lowerneck -12.5953 -1.14359 2.38413
upperneck 39.5223 1.60209 -4.342
head 16.3033 1.09099 -1.87551
rclavicle -2.70347e-014 2.8625e-014
rhumerus -14.974 22.7331 -97.9715
rradius 48.6585
rwrist -50.3666
rhand -33.3448 -9.00515
rfingers 7.12502
rthumb -6.54707 -38.884
lclavicle -2.70347e-014 2.8625e-014
lhumerus -8.07986 -47.7382 105.165
lradius 42.9034
lwrist 48.9334
lhand -8.48476 63.8339
lfingers 7.12502
lthumb -162.558 86.9286
rfemur -28.8933 -7.03866 14.1075
rtibia 26.8202
rfoot -8.59678 -14.2509
rtoes -6.88598
lfemur -31.9651 2.26461 -13.0412
ltibia 19.5023
lfoot -6.1824 -11.9757
ltoes -10.5054
